<?xml version="1.0" standalone="no"?>
<!DOCTYPE svg PUBLIC "-//W3C//DTD SVG 20010904//EN"
 "http://www.w3.org/TR/2001/REC-SVG-20010904/DTD/svg10.dtd">
<svg version="1.0" xmlns="http://www.w3.org/2000/svg"
 width="417.000000pt" height="325.000000pt" viewBox="0 0 417.000000 325.000000"
 preserveAspectRatio="xMidYMid meet">

<g transform="translate(0.000000,325.000000) scale(0.100000,-0.100000)"
fill="#000000" stroke="none">
<path d="M1829 3071 c-27 -27 -29 -35 -29 -105 l0 -75 -57 -6 c-468 -49 -886
-369 -1048 -801 -31 -82 -58 -191 -81 -329 -3 -19 -11 -20 -98 -20 -86 0 -97
-2 -120 -24 -32 -31 -34 -78 -5 -115 21 -27 23 -27 123 -25 l101 3 3 -34 c11
-139 67 -324 138 -455 70 -129 138 -221 238 -320 198 -197 421 -310 697 -353
l114 -17 3 -87 c3 -83 4 -88 33 -112 40 -34 74 -33 110 3 28 28 29 34 29 115
l0 85 38 6 c256 41 434 107 607 225 282 192 477 521 530 893 l6 47 113 0 c133
0 146 8 146 82 0 73 -20 83 -146 81 -103 -2 -125 4 -81 24 34 16 112 86 167
150 52 60 90 130 121 221 28 82 41 92 115 92 167 0 319 107 404 284 28 61 60
199 48 211 -3 4 -36 -8 -73 -24 -37 -17 -113 -40 -169 -51 -56 -11 -123 -28
-150 -36 -58 -20 -120 -73 -148 -127 l-20 -40 -18 40 c-23 53 -75 110 -119
132 -20 11 -80 31 -135 45 -54 14 -137 44 -183 66 l-86 40 7 -43 c22 -140 49
-219 98 -293 71 -106 181 -184 260 -184 34 0 43 -17 33 -66 -9 -51 -81 -124
-164 -168 l-68 -35 -17 57 c-66 209 -239 457 -421 602 -160 127 -376 216 -613
250 l-82 12 0 82 c0 73 -3 85 -23 104 -35 33 -91 30 -128 -7z m-26 -518 l-2
-147 -83 -18 c-284 -60 -529 -301 -586 -575 l-17 -83 -156 0 -156 0 9 61 c44
323 272 646 558 789 130 65 302 117 395 119 l40 1 -2 -147z m382 111 c377
-109 651 -389 749 -766 14 -51 26 -109 28 -128 l3 -34 -152 -1 -152 -2 -11 56
c-17 87 -29 119 -76 211 -67 131 -175 241 -308 314 -63 35 -215 86 -255 86
l-31 0 0 151 0 152 58 -6 c31 -4 98 -18 147 -33z m-375 -533 c0 -110 8 -121
85 -121 77 0 85 11 85 121 0 49 2 89 3 89 14 0 143 -47 187 -68 73 -36 196
-159 237 -237 33 -63 66 -172 55 -179 -4 -2 -45 -4 -92 -5 -99 -1 -110 -9
-110 -82 0 -70 14 -79 117 -79 l86 0 -7 -32 c-27 -143 -136 -292 -271 -373
-51 -30 -167 -75 -196 -75 -5 0 -9 36 -9 80 0 73 -3 83 -25 105 -30 31 -82 33
-119 4 -25 -19 -26 -25 -26 -110 0 -81 -2 -90 -17 -85 -10 3 -48 14 -84 26
-139 42 -278 167 -349 314 -21 45 -42 95 -45 113 l-6 31 100 7 c110 8 111 9
111 86 0 63 -16 74 -119 77 -105 5 -104 2 -65 100 72 183 211 310 396 363 35
10 66 18 71 18 4 1 7 -39 7 -88z m-675 -641 c76 -304 304 -518 618 -580 l57
-11 0 -153 c0 -84 -2 -155 -5 -158 -17 -17 -251 42 -360 90 -157 69 -332 210
-442 357 -98 130 -172 316 -197 495 l-6 45 156 0 157 -1 22 -84z m1825 50 c-1
-99 -71 -309 -142 -424 -75 -123 -212 -267 -328 -346 -118 -80 -267 -141 -407
-165 -47 -8 -90 -15 -94 -15 -5 0 -9 73 -9 163 l0 163 33 2 c161 12 351 120
486 277 54 64 117 195 143 299 l20 81 149 0 149 0 0 -35z"/>
<path d="M1832 1851 c-94 -24 -155 -106 -154 -207 0 -63 18 -99 71 -147 85
-77 216 -72 292 10 40 42 59 87 59 138 0 78 -46 156 -111 190 -34 18 -115 26
-157 16z"/>
</g>
</svg>
